<?xml version="1.0" encoding="utf-8"?>
<!-- Generator: Adobe Illustrator 16.0.0, SVG Export Plug-In . SVG Version: 6.00 Build 0)  -->
<svg version="1.2" baseProfile="tiny"
	 id="svg2" xmlns:svg="http://www.w3.org/2000/svg" xmlns:rdf="http://www.w3.org/1999/02/22-rdf-syntax-ns#" xmlns:cc="http://creativecommons.org/ns#" xmlns:dc="http://purl.org/dc/elements/1.1/"
	 xmlns="http://www.w3.org/2000/svg" xmlns:xlink="http://www.w3.org/1999/xlink" x="0px" y="0px" width="500.314px"
	 height="268.07px" viewBox="55.843 261.965 500.314 268.07" xml:space="preserve">
<g>
	<g>
		<path fill="#F7931E" d="M393.928,438.713l147.351-34.131c13.804-3.198,14.877-15.135,14.877-18.721
			c0-3.578-1.073-15.516-14.877-18.714l-147.351-34.131V438.713z"/>
		<path fill="#FCEE21" d="M393.928,417.776l88.969-20.608c8.335-1.931,8.983-9.139,8.983-11.304c0-2.16-0.648-9.368-8.983-11.299
			l-88.969-20.607V417.776z"/>
	</g>
	<g id="g14">
		<g id="g20" transform="translate(26,2)">
			<path id="path22" fill="#292F33" d="M276.226,518.18c-27.102,0-19.71-59.131-19.71-59.131c0-10.881,26.077-19.711,36.957-19.711
				s32.029-1.025,32.029,9.855C325.502,449.193,303.328,518.18,276.226,518.18"/>
		</g>
		<g id="g24" transform="translate(29,1)">
			<path id="path26" fill="#66757F" d="M302.792,529.035c-27.103,0-19.711-59.133-19.711-59.133
				c0-10.879,26.078-19.709,36.957-19.709c10.881,0,32.029-1.025,32.029,9.855C352.067,460.049,329.894,529.035,302.792,529.035"/>
		</g>
		<g id="g28" transform="translate(15,2)">
			<path id="path30" fill="#292F33" d="M178.818,518.18c-27.102,0-39.421-59.131-39.421-59.131
				c0-10.881,26.077-19.711,36.957-19.711c10.881,0,32.029-1.025,32.029,9.855C208.384,449.193,205.92,518.18,178.818,518.18"/>
		</g>
		<g id="g32" transform="translate(18,1)">
			<path id="path34" fill="#66757F" d="M205.384,529.035c-27.102,0-39.421-59.133-39.421-59.133
				c0-10.879,26.077-19.709,36.957-19.709s32.03-1.025,32.03,9.855C234.95,460.049,232.486,529.035,205.384,529.035"/>
		</g>
		<g id="g36" transform="translate(36.75,15.6162)">
			<path id="path38" fill="#E1E8ED" d="M371.419,370.372c0,76.694-44.298,112.429-143.088,112.429
				c-98.778,0-132.858-35.734-132.858-112.429c0-76.703,34.08-112.418,132.858-112.418
				C327.121,257.954,371.419,293.669,371.419,370.372"/>
		</g>
		<g id="g40" transform="translate(18,19.333)">
			<path id="path42" fill="#99AAB5" d="M205.384,330.026c0,91.979-45.876,111.69-88.283,111.69c-42.417,0-69.4-65.439-69.4-111.69
				c0-46.26,26.983-55.849,69.4-55.849C159.508,274.177,205.384,283.766,205.384,330.026"/>
		</g>
		<g id="g44" transform="translate(7,16.5)">
			<path id="path46" fill="#292F33" d="M107.977,360.778c0,8.161-6.613,14.783-14.783,14.783s-14.783-6.622-14.783-14.783
				c0-8.159,6.613-14.782,14.783-14.782S107.977,352.619,107.977,360.778"/>
		</g>
		<g id="g48" transform="translate(16.75,24.25)">
			<path id="path50" fill="#E1E8ED" d="M194.314,276.65c-17.246,32.029-20.972,25.683-70.248,45.394
				c-30.324,12.132-84.971,8.811-84.971-38.002c0-19.05,36.335-24.638,68.986-24.638
				C140.732,259.404,210.665,246.277,194.314,276.65"/>
		</g>
		<g id="g52" transform="translate(17,23.3042)">
			<path id="path54" fill="#FFCC4D" d="M196.528,286.917c33.045,23.919,53.515,60.501,36.701,109.285
				c-13.482,39.095-67.183,30.709-94.777,11.106c-27.575-19.592-26.038-47.227-17.079-61.999
				c8.958-14.752,40.978-12.102,59.368,0.956c9.204,6.534,2.838,15.374-7.096,10.525c-22.589-11.019-29.931,14.23-12.28,28.402
				c12.467,10.014,32.266,10.338,36.021-9.954c6.613-35.765-34.542-61.831-73.569-52.242
				C147.253,309.624,168.55,266.666,196.528,286.917"/>
		</g>
	</g>
	<path fill="#8ED6FB" d="M394.342,499.764c5.617,0.179,8.502-6.621,4.459-10.525c-10.75-10.379-18.873-22.772-18.873-22.772
		s-35.364,5.284-73.929,8.941C340.79,494.81,374.656,499.139,394.342,499.764z"/>
	<path fill="#8ED6FB" d="M292.666,286.326c38.564,3.657,73.93,8.941,73.93,8.941s8.123-12.393,18.872-22.772
		c4.043-3.904,1.158-10.704-4.459-10.526C361.324,262.594,327.457,266.923,292.666,286.326z"/>
	<path fill="#8ED6FB" d="M347.575,378.124l-13.174,4.409l0,0l0,0l0,0l0,0l13.174,4.409c24.501,8.2,51.005,8.2,75.508,0l13.172-4.409
		h0.002h-0.002h0.002h-0.002l-13.172-4.409C398.58,369.924,372.076,369.924,347.575,378.124z"/>
	<path fill="#1C78C0" d="M334.401,382.533L334.401,382.533L334.401,382.533L334.401,382.533h0.002h101.852l0,0h0.002h-0.002l0,0
		l-13.172-4.409c-24.503-8.2-51.007-8.2-75.508,0L334.401,382.533z"/>
</g>
</svg>
